HIERARCHY
ROOT hip
{
  OFFSET 0 0 0
  CHANNELS 6 Xposition Yposition Zposition Zrotation Yrotation Xrotation
  JOINT abdomen
  {
    OFFSET 0 20.6881 -0.73152
    CHANNELS 3 Zrotation Xrotation Yrotation
    JOINT chest
    {
      OFFSET 0 11.7043 -0.48768
      CHANNELS 3 Zrotation Xrotation Yrotation
      JOINT neck
      {
        OFFSET 0 22.1894 -2.19456
        CHANNELS 3 Zrotation Xrotation Yrotation
        JOINT head
        {
          OFFSET -0.24384 7.07133 1.2192
          CHANNELS 3 Zrotation Xrotation Yrotation
          JOINT leftEye
          {
            OFFSET 4.14528 8.04674 8.04672
            CHANNELS 3 Zrotation Xrotation Yrotation
            End Site
            {
              OFFSET 1 0 0
            }
          }
          JOINT rightEye
          {
            OFFSET -3.6576 8.04674 8.04672
            CHANNELS 3 Zrotation Xrotation Yrotation
            End Site
            {
              OFFSET 1 0 0
            }
          }
        }
      }
      JOINT rCollar
      {
        OFFSET -2.68224 19.2634 -4.8768
        CHANNELS 3 Zrotation Xrotation Yrotation
        JOINT rShldr
        {
          OFFSET -8.77824 -1.95073 1.46304
          CHANNELS 3 Zrotation Xrotation Yrotation
          JOINT rForeArm
          {
            OFFSET -28.1742 -1.7115 0.48768
            CHANNELS 3 Zrotation Xrotation Yrotation
            JOINT rHand
            {
              OFFSET -22.5879 0.773209 7.07136
              CHANNELS 3 Zrotation Xrotation Yrotation
              JOINT rThumb1
              {
                OFFSET -1.2192 -0.487915 3.41376
                CHANNELS 3 Zrotation Xrotation Yrotation
                JOINT rThumb2
                {
                  OFFSET -3.37035 -0.52449 3.41376
                  CHANNELS 3 Zrotation Xrotation Yrotation
                  End Site
                  {
                    OFFSET -1.78271 -1.18214 1.43049
                  }
                }
              }
              JOINT rIndex1
              {
                OFFSET -7.75947 0.938293 5.60832
                CHANNELS 3 Zrotation Xrotation Yrotation
                JOINT rIndex2
                {
                  OFFSET -2.54057 -0.884171 1.56538
                  CHANNELS 3 Zrotation Xrotation Yrotation
                  End Site
                  {
                    OFFSET -1.62519 -0.234802 1.16502
                  }
                }
              }
              JOINT rMid1
              {
                OFFSET -8.24714 1.18213 3.41376
                CHANNELS 3 Zrotation Xrotation Yrotation
                JOINT rMid2
                {
                  OFFSET -3.10165 -0.590103 1.0647
                  CHANNELS 3 Zrotation Xrotation Yrotation
                  End Site
                  {
                    OFFSET -2.48547 -0.328903 0.83742
                  }
                }
              }
              JOINT rRing1
              {
                OFFSET -8.82822 0.546677 1.51678
                CHANNELS 3 Zrotation Xrotation Yrotation
                JOINT rRing2
                {
                  OFFSET -2.60934 -0.819778 -0.0198488
                  CHANNELS 3 Zrotation Xrotation Yrotation
                  End Site
                  {
                    OFFSET -2.33842 -0.294052 0.168128
                  }
                }
              }
              JOINT rPinky1
              {
                OFFSET -8.27202 -0.0477905 -0.4584
                CHANNELS 3 Zrotation Xrotation Yrotation
                JOINT rPinky2
                {
                  OFFSET -1.82734 -0.647385 -0.700984
                  CHANNELS 3 Zrotation Xrotation Yrotation
                  End Site
                  {
                    OFFSET -1.69225 -0.51767 -0.607171
                  }
                }
              }
            }
          }
        }
      }
      JOINT lCollar
      {
        OFFSET 2.68224 19.2634 -4.8768
        CHANNELS 3 Zrotation Xrotation Yrotation
        JOINT lShldr
        {
          OFFSET 8.77824 -1.95073 1.46304
          CHANNELS 3 Zrotation Xrotation Yrotation
          JOINT lForeArm
          {
            OFFSET 28.1742 -1.7115 0.48768
            CHANNELS 3 Zrotation Xrotation Yrotation
            JOINT lHand
            {
              OFFSET 22.5879 0.773209 7.07136
              CHANNELS 3 Zrotation Xrotation Yrotation
              JOINT lThumb1
              {
                OFFSET 1.2192 -0.487915 3.41376
                CHANNELS 3 Zrotation Xrotation Yrotation
                JOINT lThumb2
                {
                  OFFSET 3.37035 -0.52449 3.41376
                  CHANNELS 3 Zrotation Xrotation Yrotation
                  End Site
                  {
                    OFFSET 1.78271 -1.18214 1.43049
                  }
                }
              }
              JOINT lIndex1
              {
                OFFSET 7.75947 0.938293 5.60832
                CHANNELS 3 Zrotation Xrotation Yrotation
                JOINT lIndex2
                {
                  OFFSET 2.54057 -0.884171 1.56538
                  CHANNELS 3 Zrotation Xrotation Yrotation
                  End Site
                  {
                    OFFSET 1.62519 -0.234802 1.16502
                  }
                }
              }
              JOINT lMid1
              {
                OFFSET 8.24714 1.18213 3.41376
                CHANNELS 3 Zrotation Xrotation Yrotation
                JOINT lMid2
                {
                  OFFSET 3.10165 -0.590103 1.0647
                  CHANNELS 3 Zrotation Xrotation Yrotation
                  End Site
                  {
                    OFFSET 2.48547 -0.328903 0.83742
                  }
                }
              }
              JOINT lRing1
              {
                OFFSET 8.82822 0.546677 1.51678
                CHANNELS 3 Zrotation Xrotation Yrotation
                JOINT lRing2
                {
                  OFFSET 2.60934 -0.819778 -0.0198488
                  CHANNELS 3 Zrotation Xrotation Yrotation
                  End Site
                  {
                    OFFSET 2.33842 -0.294052 0.168128
                  }
                }
              }
              JOINT lPinky1
              {
                OFFSET 8.27202 -0.0477905 -0.4584
                CHANNELS 3 Zrotation Xrotation Yrotation
                JOINT lPinky2
                {
                  OFFSET 1.82734 -0.647385 -0.700984
                  CHANNELS 3 Zrotation Xrotation Yrotation
                  End Site
                  {
                    OFFSET 1.69225 -0.51767 -0.607171
                  }
                }
              }
            }
          }
        }
      }
    }
  }
  JOINT rButtock
  {
    OFFSET -8.77824 4.35084 1.2192
    CHANNELS 3 Zrotation Xrotation Yrotation
    JOINT rThigh
    {
      OFFSET 0 -1.70687 -2.19456
      CHANNELS 3 Zrotation Xrotation Yrotation
      JOINT rShin
      {
        OFFSET 0 -36.8199 0.73152
        CHANNELS 3 Zrotation Xrotation Yrotation
        JOINT rFoot
        {
          OFFSET 0.73152 -45.1104 -5.12064
          CHANNELS 3 Zrotation Xrotation Yrotation
          End Site
          {
            OFFSET -1.1221 -3.69964 12.103
          }
        }
      }
    }
  }
  JOINT lButtock
  {
    OFFSET 8.77824 4.35084 1.2192
    CHANNELS 3 Zrotation Xrotation Yrotation
    JOINT lThigh
    {
      OFFSET 0 -1.70687 -2.19456
      CHANNELS 3 Zrotation Xrotation Yrotation
      JOINT lShin
      {
        OFFSET 0 -36.8199 0.73152
        CHANNELS 3 Zrotation Xrotation Yrotation
        JOINT lFoot
        {
          OFFSET -0.73152 -45.1104 -5.12064
          CHANNELS 3 Zrotation Xrotation Yrotation
          End Site
          {
            OFFSET 1.1221 -3.69964 12.103
          }
        }
      }
    }
  }
}
MOTION
Frames:	5
Frame Time:	0.03333
-0.10010000551119447 73.71910214424133 0.6519999820739031 -79.79359436035156 62.93320083618164 -80.82640838623047 5.903968811035156 50.996543884277344 -13.70174503326416 11.473894119262695 -15.334403991699219 -0.4121428430080414 -8.33084487915039 20.893096923828125 -13.112504959106445 30.428396224975586 -30.106304168701172 -18.815797805786133 -0.0 0.0 -0.0 -0.0 0.0 -0.0 -0.0 0.0 -0.0 60.55581283569336 -4.323272705078125 -15.223001480102539 -27.753801345825195 -29.304399490356445 66.13980865478516 -0.3870895504951477 -17.099878311157227 -2.4802348613739014 -0.0 0.0 -0.0 -0.0 0.0 -0.0 -0.0 0.0 -0.0 7.73087739944458 5.47489595413208 0.41732463240623474 -0.0 0.0 -0.0 2.9054994583129883 0.9650753736495972 0.10300876200199127 -0.0 0.0 -0.0 10.278595924377441 0.7317469120025635 0.026285577565431595 -0.0 0.0 -0.0 2.221662759780884 -0.7335850596427917 -0.20831839740276337 -0.0 0.0 -0.0 -15.121197700500488 49.6078987121582 -77.48299407958984 25.84589385986328 -46.56460189819336 -96.75800323486328 0.7528166770935059 -23.854095458984375 3.562934398651123 -0.0 0.0 -0.0 -0.0 0.0 -0.0 -0.0 0.0 -0.0 -7.73087739944458 5.47489595413208 -0.41732463240623474 -0.0 0.0 -0.0 -2.9054994583129883 0.9650753736495972 -0.10300876200199127 -0.0 0.0 -0.0 -10.278595924377441 0.7317469120025635 -0.026285577565431595 -0.0 0.0 -0.0 -2.221662759780884 -0.7335850596427917 0.20831839740276337 -0.0 0.0 -0.0 -131.6409912109375 -53.982791900634766 -140.7320098876953 -177.08694458007812 52.03899002075195 177.06398010253906 2.219883680343628 -6.4101176261901855 6.723606109619141 -0.0 0.0 -0.0 39.716697692871094 -33.95969772338867 30.6697940826416 0.9999227523803711 66.39790344238281 -3.5694210529327393 10.44371223449707 -18.71060562133789 24.838499069213867
-0.23950000759214163 72.17249870300293 1.262999977916479 -78.3817138671875 63.6979866027832 -78.30401611328125 5.141162872314453 47.92684555053711 -12.486952781677246 11.78969669342041 -14.568498611450195 -0.38124093413352966 -8.173017501831055 21.11849594116211 -13.43689250946045 29.524700164794922 -30.739896774291992 -19.54119873046875 -0.0 0.0 -0.0 -0.0 0.0 -0.0 -0.0 0.0 -0.0 60.01179504394531 -3.6728503704071045 -14.723197937011719 -28.11760139465332 -31.32669448852539 69.35549926757812 -0.3849214017391205 -17.681303024291992 -2.5654473304748535 -0.0 0.0 -0.0 -0.0 0.0 -0.0 -0.0 0.0 -0.0 7.73087739944458 5.47489595413208 0.41732463240623474 -0.0 0.0 -0.0 2.9054994583129883 0.9650753736495972 0.10300876200199127 -0.0 0.0 -0.0 10.278595924377441 0.7317469120025635 0.026285577565431595 -0.0 0.0 -0.0 2.221662759780884 -0.7335850596427917 -0.20831839740276337 -0.0 0.0 -0.0 -15.070804595947266 50.41809844970703 -76.78279876708984 26.007795333862305 -46.262298583984375 -96.09860229492188 0.5755763053894043 -21.39998435974121 3.1519734859466553 -0.0 0.0 -0.0 -0.0 0.0 -0.0 -0.0 0.0 -0.0 -7.73087739944458 5.47489595413208 -0.41732463240623474 -0.0 0.0 -0.0 -2.9054994583129883 0.9650753736495972 -0.10300876200199127 -0.0 0.0 -0.0 -10.278595924377441 0.7317469120025635 -0.026285577565431595 -0.0 0.0 -0.0 -2.221662759780884 -0.7335850596427917 0.20831839740276337 -0.0 0.0 -0.0 -131.60198974609375 -56.87051010131836 -138.3209991455078 -177.01502990722656 54.42169952392578 177.10806274414062 2.55161714553833 -6.99724817276001 7.360020160675049 -0.0 0.0 -0.0 42.13380432128906 -35.57200241088867 34.457305908203125 1.2921818494796753 69.50379943847656 -3.880056858062744 10.768704414367676 -19.842395782470703 24.43110466003418
-0.2810000063618645 70.63040137290955 1.725999964401126 -76.90591430664062 64.90007019042969 -75.6479263305664 4.550378322601318 45.10622024536133 -11.576265335083008 12.084498405456543 -13.869200706481934 -0.3824259638786316 -8.060771942138672 21.24940299987793 -13.711395263671875 28.74629783630371 -31.27359390258789 -20.16229820251465 -0.0 0.0 -0.0 -0.0 0.0 -0.0 -0.0 0.0 -0.0 59.51280212402344 -2.780390501022339 -14.002394676208496 -28.324010848999023 -33.156883239746094 72.32499694824219 -0.42617517709732056 -18.238805770874023 -2.654480218887329 -0.0 0.0 -0.0 -0.0 0.0 -0.0 -0.0 0.0 -0.0 7.73087739944458 5.47489595413208 0.41732463240623474 -0.0 0.0 -0.0 2.9054994583129883 0.9650753736495972 0.10300876200199127 -0.0 0.0 -0.0 10.278595924377441 0.7317469120025635 0.026285577565431595 -0.0 0.0 -0.0 2.221662759780884 -0.7335850596427917 -0.20831839740276337 -0.0 0.0 -0.0 -14.739295959472656 51.15050506591797 -76.15149688720703 26.160898208618164 -45.95479202270508 -95.45069122314453 0.4774273633956909 -19.25489616394043 2.813969850540161 -0.0 0.0 -0.0 -0.0 0.0 -0.0 -0.0 0.0 -0.0 -7.73087739944458 5.47489595413208 -0.41732463240623474 -0.0 0.0 -0.0 -2.9054994583129883 0.9650753736495972 -0.10300876200199127 -0.0 0.0 -0.0 -10.278595924377441 0.7317469120025635 -0.026285577565431595 -0.0 0.0 -0.0 -2.221662759780884 -0.7335850596427917 0.20831839740276337 -0.0 0.0 -0.0 -130.75299072265625 -59.78789520263672 -134.9429931640625 -176.9048309326172 57.06158447265625 177.10882568359375 2.9988231658935547 -6.878408908843994 8.579795837402344 -0.0 0.0 -0.0 44.328094482421875 -37.044803619384766 37.62960433959961 1.6520230770111084 72.36328125 -4.250006198883057 11.132888793945312 -20.72350311279297 24.330402374267578
-0.31680000538472086 69.22460198402405 2.189999958500266 -75.12559509277344 66.03359985351562 -73.6875991821289 4.198315143585205 43.70177459716797 -10.993101119995117 12.106610298156738 -13.648202896118164 -0.37483081221580505 -7.9320197105407715 21.380699157714844 -13.967194557189941 28.210201263427734 -31.861103057861328 -20.68280029296875 -0.0 0.0 -0.0 -0.0 0.0 -0.0 -0.0 0.0 -0.0 59.230098724365234 -1.7374526262283325 -13.084595680236816 -28.41619873046875 -34.70580291748047 74.87968444824219 -0.4331094026565552 -18.380308151245117 -2.6765387058258057 -0.0 0.0 -0.0 -0.0 0.0 -0.0 -0.0 0.0 -0.0 7.73087739944458 5.47489595413208 0.41732463240623474 -0.0 0.0 -0.0 2.9054994583129883 0.9650753736495972 0.10300876200199127 -0.0 0.0 -0.0 10.278595924377441 0.7317469120025635 0.026285577565431595 -0.0 0.0 -0.0 2.221662759780884 -0.7335850596427917 -0.20831839740276337 -0.0 0.0 -0.0 -13.996102333068848 51.96428298950195 -75.63427734375 26.240392684936523 -45.79129409790039 -95.10719299316406 0.4742000997066498 -19.190481185913086 2.8045120239257812 -0.0 0.0 -0.0 -0.0 0.0 -0.0 -0.0 0.0 -0.0 -7.73087739944458 5.47489595413208 -0.41732463240623474 -0.0 0.0 -0.0 -2.9054994583129883 0.9650753736495972 -0.10300876200199127 -0.0 0.0 -0.0 -10.278595924377441 0.7317469120025635 -0.026285577565431595 -0.0 0.0 -0.0 -2.221662759780884 -0.7335850596427917 0.20831839740276337 -0.0 0.0 -0.0 -127.60699462890625 -63.21649932861328 -129.03799438476562 -176.75074768066406 60.254581451416016 177.10177612304688 3.1676063537597656 -5.646826267242432 9.740790367126465 -0.0 0.0 -0.0 45.55790710449219 -37.949893951416016 39.70600509643555 2.109358787536621 75.01570129394531 -4.723141193389893 11.732423782348633 -21.26149559020996 24.91550064086914
-0.37860000447835773 67.98440217971802 2.759999968111515 -73.622802734375 66.80888366699219 -72.30801391601562 3.9633383750915527 42.83203125 -10.449110984802246 12.034181594848633 -13.56450080871582 -0.34214672446250916 -7.747541427612305 21.49030876159668 -14.237098693847656 27.779403686523438 -32.426998138427734 -21.209794998168945 -0.0 0.0 -0.0 -0.0 0.0 -0.0 -0.0 0.0 -0.0 59.066993713378906 -0.6995593309402466 -12.016290664672852 -28.430395126342773 -36.06829833984375 77.12379455566406 -0.440510094165802 -18.52959632873535 -2.699950695037842 -0.0 0.0 -0.0 -0.0 0.0 -0.0 -0.0 0.0 -0.0 7.73087739944458 5.47489595413208 0.41732463240623474 -0.0 0.0 -0.0 2.9054994583129883 0.9650753736495972 0.10300876200199127 -0.0 0.0 -0.0 10.278595924377441 0.7317469120025635 0.026285577565431595 -0.0 0.0 -0.0 2.221662759780884 -0.7335850596427917 -0.20831839740276337 -0.0 0.0 -0.0 -12.884297370910645 52.79090118408203 -75.38870239257812 26.283605575561523 -45.70299530029297 -94.91929626464844 0.5326117277145386 -20.281896591186523 2.9770889282226562 -0.0 0.0 -0.0 -0.0 0.0 -0.0 -0.0 0.0 -0.0 -7.73087739944458 5.47489595413208 -0.41732463240623474 -0.0 0.0 -0.0 -2.9054994583129883 0.9650753736495972 -0.10300876200199127 -0.0 0.0 -0.0 -10.278595924377441 0.7317469120025635 -0.026285577565431595 -0.0 0.0 -0.0 -2.221662759780884 -0.7335850596427917 0.20831839740276337 -0.0 0.0 -0.0 -121.85099029541016 -66.5904769897461 -120.64100646972656 -176.51600646972656 63.952999114990234 177.03199768066406 3.056363821029663 -3.7323527336120605 10.634098052978516 -0.0 0.0 -0.0 46.493499755859375 -38.62449645996094 41.166297912597656 2.688046932220459 77.38449096679688 -5.3099799156188965 12.345507621765137 -21.634498596191406 25.623706817626953
